<svg xmlns="http://www.w3.org/2000/svg" viewBox="0 0 1300 560" width="1300" height="560" role="img" aria-label="Where the guardrail sits"><defs><marker id="ah343a40" viewBox="0 0 10 10" refX="9" refY="5" markerWidth="7" markerHeight="7" orient="auto-start-reverse"><path d="M0,0 L10,5 L0,10 z" fill="#343a40"/></marker><marker id="ah343a40s" viewBox="0 0 10 10" refX="9" refY="5" markerWidth="7" markerHeight="7" orient="auto-start-reverse"><path d="M0,0 L10,5 L0,10 z" fill="#343a40"/></marker><marker id="ahe03131" viewBox="0 0 10 10" refX="9" refY="5" markerWidth="7" markerHeight="7" orient="auto-start-reverse"><path d="M0,0 L10,5 L0,10 z" fill="#e03131"/></marker><marker id="ahe03131s" viewBox="0 0 10 10" refX="9" refY="5" markerWidth="7" markerHeight="7" orient="auto-start-reverse"><path d="M0,0 L10,5 L0,10 z" fill="#e03131"/></marker></defs><rect x="0" y="0" width="1300" height="560" rx="18" fill="#fffdf7"/><text xml:space="preserve" x="650.0" y="44" text-anchor="middle" font-family="'Cascadia Code','JetBrains Mono','SF Mono',Menlo,Consolas,'Liberation Mono',monospace" font-size="24" font-weight="700" fill="#1864ab">Where the guardrail sits</text><text xml:space="preserve" x="650.0" y="70" text-anchor="middle" font-family="'Inter','Segoe UI','Helvetica Neue',Arial,sans-serif" font-size="14" fill="#868e96">LLMs power agents and RAG; a guard checks what goes in and what comes out (0:06 to 0:13)</text><rect x="40" y="110" width="170" height="56" rx="9" fill="#fff9db" stroke="#e8a300" stroke-width="1.6"/><rect x="39.5" y="109.0" width="170.5" height="54.7" rx="10" fill="none" stroke="#e8a300" stroke-width="1.1" stroke-opacity="0.45"/><text xml:space="preserve" x="125.0" y="143.8" text-anchor="middle" font-family="'Cascadia Code','JetBrains Mono','SF Mono',Menlo,Consolas,'Liberation Mono',monospace" font-size="18" font-weight="700" fill="#b35c00">LLMs</text><rect x="270" y="100" width="190" height="44" rx="9" fill="#fff0f6" stroke="#d6336c" stroke-width="1.6"/><rect x="270.1" y="99.6" width="188.7" height="44.0" rx="10" fill="none" stroke="#d6336c" stroke-width="1.1" stroke-opacity="0.45"/><text xml:space="preserve" x="365.0" y="126.5" text-anchor="middle" font-family="'Cascadia Code','JetBrains Mono','SF Mono',Menlo,Consolas,'Liberation Mono',monospace" font-size="14" font-weight="700" fill="#c2255c">Agentic AI</text><rect x="270" y="160" width="190" height="44" rx="9" fill="#fff0f6" stroke="#d6336c" stroke-width="1.6"/><rect x="268.6" y="159.8" width="188.7" height="42.8" rx="10" fill="none" stroke="#d6336c" stroke-width="1.1" stroke-opacity="0.45"/><text xml:space="preserve" x="365.0" y="186.6" text-anchor="middle" font-family="'Cascadia Code','JetBrains Mono','SF Mono',Menlo,Consolas,'Liberation Mono',monospace" font-size="14" font-weight="700" fill="#c2255c">RAG</text><path d="M210.0,129.6 L270.0,122.0" fill="none" stroke="#343a40" stroke-width="1.8" stroke-linejoin="round" marker-end="url(#ah343a40)"/><path d="M210.0,149.2 L270.0,182.0" fill="none" stroke="#343a40" stroke-width="1.8" stroke-linejoin="round" marker-end="url(#ah343a40)"/><rect x="40" y="240" width="540" height="290" rx="14" fill="#f8f9fa" fill-opacity="0.35" stroke="#6c757d" stroke-width="2" stroke-dasharray="9 6"/><text xml:space="preserve" x="310.0" y="266" text-anchor="middle" font-family="'Cascadia Code','JetBrains Mono','SF Mono',Menlo,Consolas,'Liberation Mono',monospace" font-size="16" font-weight="700" fill="#343a40">RAG without a guard</text><g stroke="#e8a300" stroke-width="2.4" fill="none" stroke-linecap="round"><circle cx="110" cy="311.0" r="11.0" fill="#fff9db"/><path d="M110,322.0 v24.0 M94.0,332.0 h32.0 M110,346.0 l-12.0,18.0 M110,346.0 l12.0,18.0"/></g><text xml:space="preserve" x="110" y="384.0" text-anchor="middle" font-family="'Cascadia Code','JetBrains Mono','SF Mono',Menlo,Consolas,'Liberation Mono',monospace" font-size="13" font-weight="700" fill="#b35c00">user</text><rect x="260" y="320" width="140" height="56" rx="9" fill="#fff0f6" stroke="#d6336c" stroke-width="1.6"/><rect x="259.8" y="321.0" width="138.9" height="55.2" rx="10" fill="none" stroke="#d6336c" stroke-width="1.1" stroke-opacity="0.45"/><text xml:space="preserve" x="330.0" y="340.9" text-anchor="middle" font-family="'Cascadia Code','JetBrains Mono','SF Mono',Menlo,Consolas,'Liberation Mono',monospace" font-size="14" font-weight="700" fill="#c2255c">LLM</text><text xml:space="preserve" x="330.0" y="364.2" text-anchor="middle" font-family="'Cascadia Code','JetBrains Mono','SF Mono',Menlo,Consolas,'Liberation Mono',monospace" font-size="12" fill="#343a40">answers</text><path d="M450,312 a50.0,12 0 0 0 100,0 v86 a50.0,12 0 0 1 -100,0 z" fill="#fff9db" stroke="#e8a300" stroke-width="1.6"/><ellipse cx="500.0" cy="312" rx="50.0" ry="12" fill="#fff9db" stroke="#e8a300" stroke-width="1.6"/><text xml:space="preserve" x="500.0" y="356.6" text-anchor="middle" font-family="'Cascadia Code','JetBrains Mono','SF Mono',Menlo,Consolas,'Liberation Mono',monospace" font-size="13" font-weight="700" fill="#b35c00">DB</text><text xml:space="preserve" x="500.0" y="374.0" text-anchor="middle" font-family="'Cascadia Code','JetBrains Mono','SF Mono',Menlo,Consolas,'Liberation Mono',monospace" font-size="12" fill="#343a40">documents</text><path d="M130.0,340.0 L260.0,339.6" fill="none" stroke="#343a40" stroke-width="1.8" stroke-linejoin="round" marker-end="url(#ah343a40)"/><path d="M260.0,362.0 L130.0,362.0" fill="none" stroke="#343a40" stroke-width="1.8" stroke-linejoin="round" marker-end="url(#ah343a40)"/><path d="M400.0,336.8 Q426.2,342.4 450.0,330.0" fill="none" stroke="#343a40" stroke-width="1.8" stroke-linejoin="round" marker-end="url(#ah343a40)"/><path d="M450.0,380.0 Q427.7,363.4 400.0,364.8" fill="none" stroke="#343a40" stroke-width="1.8" stroke-linejoin="round" marker-end="url(#ah343a40)"/><rect x="620" y="240" width="300" height="290" rx="14" fill="#fff5f5" fill-opacity="0.35" stroke="#e03131" stroke-width="2" stroke-dasharray="9 6"/><text xml:space="preserve" x="770.0" y="266" text-anchor="middle" font-family="'Cascadia Code','JetBrains Mono','SF Mono',Menlo,Consolas,'Liberation Mono',monospace" font-size="16" font-weight="700" fill="#c92a2a">RAG with a guardrail</text><g stroke="#d6336c" stroke-width="1.68" fill="none" stroke-linecap="round"><circle cx="770" cy="289.7" r="7.699999999999999" fill="#fff0f6"/><path d="M770,297.4 v16.799999999999997 M758.8,304.4 h22.4 M770,314.2 l-8.399999999999999,12.6 M770,314.2 l8.399999999999999,12.6"/></g><text xml:space="preserve" x="770" y="340.8" text-anchor="middle" font-family="'Cascadia Code','JetBrains Mono','SF Mono',Menlo,Consolas,'Liberation Mono',monospace" font-size="13" font-weight="700" fill="#c2255c">user</text><rect x="680" y="370" width="180" height="50" rx="9" fill="#fff5f5" stroke="#e03131" stroke-width="1.6"/><rect x="680.4" y="371.3" width="180.2" height="49.7" rx="10" fill="none" stroke="#e03131" stroke-width="1.1" stroke-opacity="0.45"/><text xml:space="preserve" x="770.0" y="387.9" text-anchor="middle" font-family="'Cascadia Code','JetBrains Mono','SF Mono',Menlo,Consolas,'Liberation Mono',monospace" font-size="14" font-weight="700" fill="#c92a2a">guardrails</text><text xml:space="preserve" x="770.0" y="411.2" text-anchor="middle" font-family="'Cascadia Code','JetBrains Mono','SF Mono',Menlo,Consolas,'Liberation Mono',monospace" font-size="12" fill="#343a40">check in and out</text><rect x="700" y="455" width="140" height="50" rx="9" fill="#ebfbee" stroke="#2f9e44" stroke-width="1.6"/><rect x="701.4" y="453.6" width="141.1" height="49.4" rx="10" fill="none" stroke="#2f9e44" stroke-width="1.1" stroke-opacity="0.45"/><text xml:space="preserve" x="770.0" y="484.6" text-anchor="middle" font-family="'Cascadia Code','JetBrains Mono','SF Mono',Menlo,Consolas,'Liberation Mono',monospace" font-size="14" font-weight="700" fill="#2b8a3e">LLM</text><path d="M770.0,352.0 L770.0,370.0" fill="none" stroke="#343a40" stroke-width="1.8" stroke-linejoin="round" marker-end="url(#ah343a40)"/><path d="M770.0,420.0 L770.0,455.0" fill="none" stroke="#343a40" stroke-width="1.8" stroke-linejoin="round" marker-end="url(#ah343a40)"/><path d="M700.0,480.0 L665.0,480.0 L665.0,410.0 L680.0,410.0" fill="none" stroke="#e03131" stroke-width="1.8" stroke-linejoin="round" marker-end="url(#ahe03131)"/><rect x="960" y="240" width="310" height="290" rx="14" fill="#fff4e6" fill-opacity="0.35" stroke="#e8590c" stroke-width="2" stroke-dasharray="9 6"/><text xml:space="preserve" x="1115.0" y="266" text-anchor="middle" font-family="'Cascadia Code','JetBrains Mono','SF Mono',Menlo,Consolas,'Liberation Mono',monospace" font-size="16" font-weight="700" fill="#c2410c">Why check the output too</text><rect x="990" y="285" width="250" height="60" rx="9" fill="#fff4e6" stroke="#e8590c" stroke-width="1.6"/><rect x="988.9" y="283.9" width="249.4" height="60.9" rx="10" fill="none" stroke="#e8590c" stroke-width="1.1" stroke-opacity="0.45"/><text xml:space="preserve" x="1115.0" y="307.9" text-anchor="middle" font-family="'Cascadia Code','JetBrains Mono','SF Mono',Menlo,Consolas,'Liberation Mono',monospace" font-size="14" font-weight="700" fill="#c2410c">Chatbot on 50 GB</text><text xml:space="preserve" x="1115.0" y="331.2" text-anchor="middle" font-family="'Cascadia Code','JetBrains Mono','SF Mono',Menlo,Consolas,'Liberation Mono',monospace" font-size="12" fill="#343a40">of enterprise data</text><rect x="990" y="370" width="250" height="60" rx="9" fill="#fff9db" stroke="#e8a300" stroke-width="1.6"/><rect x="989.0" y="370.2" width="250.4" height="59.6" rx="10" fill="none" stroke="#e8a300" stroke-width="1.1" stroke-opacity="0.45"/><text xml:space="preserve" x="1115.0" y="392.9" text-anchor="middle" font-family="'Cascadia Code','JetBrains Mono','SF Mono',Menlo,Consolas,'Liberation Mono',monospace" font-size="14" font-weight="700" fill="#b35c00">~500 MB is relevant</text><text xml:space="preserve" x="1115.0" y="416.2" text-anchor="middle" font-family="'Cascadia Code','JetBrains Mono','SF Mono',Menlo,Consolas,'Liberation Mono',monospace" font-size="12" fill="#343a40">to this assistant</text><rect x="990" y="455" width="250" height="60" rx="9" fill="#fff5f5" stroke="#e03131" stroke-width="1.6"/><rect x="990.1" y="453.7" width="248.7" height="59.1" rx="10" fill="none" stroke="#e03131" stroke-width="1.1" stroke-opacity="0.45"/><text xml:space="preserve" x="1115.0" y="477.9" text-anchor="middle" font-family="'Cascadia Code','JetBrains Mono','SF Mono',Menlo,Consolas,'Liberation Mono',monospace" font-size="14" font-weight="700" fill="#c92a2a">Answer only from it</text><text xml:space="preserve" x="1115.0" y="501.2" text-anchor="middle" font-family="'Cascadia Code','JetBrains Mono','SF Mono',Menlo,Consolas,'Liberation Mono',monospace" font-size="12" fill="#343a40">nothing else leaks out</text><path d="M1115.0,345.0 L1115.0,370.0" fill="none" stroke="#343a40" stroke-width="1.8" stroke-linejoin="round" marker-end="url(#ah343a40)"/><path d="M1115.0,430.0 L1115.0,455.0" fill="none" stroke="#343a40" stroke-width="1.8" stroke-linejoin="round" marker-end="url(#ah343a40)"/><rect x="163.6" y="330.8" width="62.8" height="18" rx="4" fill="#fffdf7" fill-opacity="0.95"/><text xml:space="preserve" x="195.0" y="343.8" text-anchor="middle" font-family="'Cascadia Code','JetBrains Mono','SF Mono',Menlo,Consolas,'Liberation Mono',monospace" font-size="11" font-weight="700" fill="#343a40">question</text><rect x="170.2" y="353.0" width="49.6" height="18" rx="4" fill="#fffdf7" fill-opacity="0.95"/><text xml:space="preserve" x="195.0" y="366.0" text-anchor="middle" font-family="'Cascadia Code','JetBrains Mono','SF Mono',Menlo,Consolas,'Liberation Mono',monospace" font-size="11" font-weight="700" fill="#343a40">answer</text><rect x="394.2" y="328.9" width="62.8" height="18" rx="4" fill="#fffdf7" fill-opacity="0.95"/><text xml:space="preserve" x="425.6" y="341.9" text-anchor="middle" font-family="'Cascadia Code','JetBrains Mono','SF Mono',Menlo,Consolas,'Liberation Mono',monospace" font-size="11" font-weight="700" fill="#343a40">retrieve</text><rect x="398.3" y="358.9" width="56.2" height="18" rx="4" fill="#fffdf7" fill-opacity="0.95"/><text xml:space="preserve" x="426.4" y="371.9" text-anchor="middle" font-family="'Cascadia Code','JetBrains Mono','SF Mono',Menlo,Consolas,'Liberation Mono',monospace" font-size="11" font-weight="700" fill="#343a40">context</text></svg>
